<svg viewBox="0 0 1600 900" xmlns="http://www.w3.org/2000/svg" preserveAspectRatio="xMidYMid slice">
  <defs>
    <linearGradient id="sky3" x1="0" y1="0" x2="0" y2="1">
      <stop offset="0%" stop-color="#bfe9ff"/>
      <stop offset="60%" stop-color="#e3f7ff"/>
      <stop offset="100%" stop-color="#eafcff"/>
    </linearGradient>
    <linearGradient id="sea3" x1="0" y1="0" x2="0" y2="1">
      <stop offset="0%" stop-color="#8fd3f4"/>
      <stop offset="100%" stop-color="#3f9fd6"/>
    </linearGradient>
    <radialGradient id="glint3" cx="50%" cy="50%" r="50%">
      <stop offset="0%" stop-color="#fff9dc" stop-opacity="0.9"/>
      <stop offset="100%" stop-color="#fff9dc" stop-opacity="0"/>
    </radialGradient>
  </defs>
  <rect width="1600" height="900" fill="url(#sky3)"/>
  <circle cx="380" cy="200" r="170" fill="url(#glint3)"/>
  <circle cx="380" cy="200" r="60" fill="#fff4c2"/>
  <rect y="560" width="1600" height="340" fill="url(#sea3)"/>
  <g fill="#ffffff" opacity="0.9">
    <ellipse cx="260" cy="180" rx="70" ry="26"/>
    <ellipse cx="320" cy="170" rx="55" ry="22"/>
    <ellipse cx="210" cy="195" rx="45" ry="18"/>
    <ellipse cx="900" cy="140" rx="90" ry="30"/>
    <ellipse cx="980" cy="130" rx="60" ry="24"/>
    <ellipse cx="1300" cy="230" rx="75" ry="26"/>
    <ellipse cx="1370" cy="220" rx="50" ry="20"/>
    <ellipse cx="120" cy="340" rx="60" ry="20"/>
    <ellipse cx="700" cy="330" rx="80" ry="24"/>
  </g>
  <g fill="#dcefff" opacity="0.7">
    <ellipse cx="0" cy="600" rx="120" ry="10"/>
    <ellipse cx="1600" cy="640" rx="140" ry="10"/>
  </g>
</svg>
